<svg width="56" height="56" viewBox="0 0 56 56" fill="none" xmlns="http://www.w3.org/2000/svg">
<circle cx="28" cy="28" r="24.0909" stroke="#E8180B" stroke-width="1.81818"/>
<path d="M29.2755 34.1923H26.7681L25.6684 12.0912H30.3752L29.2755 34.1923ZM25.2725 40.5253C25.2725 39.4626 25.5365 38.7159 26.0643 38.2851C26.5922 37.8542 27.2373 37.6388 27.9998 37.6388C28.7329 37.6388 29.3634 37.8542 29.8913 38.2851C30.4485 38.7159 30.7271 39.4626 30.7271 40.5253C30.7271 41.5593 30.4485 42.306 29.8913 42.7656C29.3634 43.2251 28.7329 43.4549 27.9998 43.4549C27.2373 43.4549 26.5922 43.2251 26.0643 42.7656C25.5365 42.306 25.2725 41.5593 25.2725 40.5253Z" fill="#E8180B"/>
</svg>
