<svg width="56" height="56" viewBox="0 0 56 56" fill="none" xmlns="http://www.w3.org/2000/svg">
<circle cx="28" cy="28" r="24.8889" fill="#E8180B"/>
<path fill-rule="evenodd" clip-rule="evenodd" d="M18.8789 15.3433C17.9025 14.367 16.3196 14.367 15.3433 15.3433C14.367 16.3196 14.367 17.9025 15.3433 18.8789L24.4644 28L15.3433 37.1211C14.367 38.0974 14.367 39.6803 15.3433 40.6566C16.3196 41.6329 17.9025 41.6329 18.8789 40.6566L28 31.5355L37.1211 40.6566C38.0974 41.6329 39.6803 41.6329 40.6566 40.6566C41.6329 39.6803 41.6329 38.0974 40.6566 37.1211L31.5355 28L40.6566 18.8789C41.6329 17.9025 41.6329 16.3196 40.6566 15.3433C39.6803 14.367 38.0974 14.367 37.1211 15.3433L28 24.4644L18.8789 15.3433Z" fill="white"/>
</svg>
