<svg width="28" height="28" viewBox="0 0 28 28" fill="none" xmlns="http://www.w3.org/2000/svg">
<path d="M2.33329 24.5C2.00274 24.5 1.72585 24.388 1.50263 24.164C1.27863 23.9408 1.16663 23.6639 1.16663 23.3333C1.16663 23.0028 1.27863 22.7259 1.50263 22.5027C1.72585 22.2787 2.00274 22.1667 2.33329 22.1667H25.6666C25.9972 22.1667 26.2741 22.2787 26.4973 22.5027C26.7213 22.7259 26.8333 23.0028 26.8333 23.3333C26.8333 23.6639 26.7213 23.9408 26.4973 24.164C26.2741 24.388 25.9972 24.5 25.6666 24.5H2.33329ZM4.66663 21C4.02496 21 3.47585 20.7717 3.01929 20.3152C2.56196 19.8578 2.33329 19.3083 2.33329 18.6667V5.83333C2.33329 5.19167 2.56196 4.64217 3.01929 4.18483C3.47585 3.72828 4.02496 3.5 4.66663 3.5H23.3333C23.975 3.5 24.5245 3.72828 24.9818 4.18483C25.4383 4.64217 25.6666 5.19167 25.6666 5.83333V18.6667C25.6666 19.3083 25.4383 19.8578 24.9818 20.3152C24.5245 20.7717 23.975 21 23.3333 21H4.66663Z" fill="white"/>
</svg>
